<?xml version="1.0" encoding="utf-8"?>
<!DOCTYPE svg PUBLIC "-//W3C//DTD SVG 1.1//EN" "http://www.w3.org/Graphics/SVG/1.1/DTD/svg11.dtd">
<svg version="1.1" id="Calque_1" xmlns="http://www.w3.org/2000/svg" xmlns:xlink="http://www.w3.org/1999/xlink" x="0px" y="0px"
	 width="800px" height="178.096px" viewBox="0 0 800 178.096" enable-background="new 0 0 800 178.096" xml:space="preserve">
<g>
	<path fill="#1E1A1D" d="M254.18,92.288c-0.839-0.839-1.259-1.874-1.259-3.105v-56.83c0-1.287,0.42-2.336,1.259-3.148
		c0.84-0.81,1.875-1.217,3.106-1.217h15.193c6.324,0,11.948,1.4,16.873,4.197c4.923,2.799,8.757,6.673,11.5,11.626
		c2.742,4.953,4.114,10.591,4.114,16.915c0,6.325-1.372,11.976-4.114,16.957c-2.742,4.981-6.576,8.871-11.5,11.668
		c-4.925,2.799-10.549,4.197-16.873,4.197h-15.193C256.055,93.546,255.02,93.127,254.18,92.288z M272.48,85.824
		c4.645,0,8.8-1.063,12.466-3.19c3.665-2.126,6.518-5.106,8.562-8.94c2.042-3.833,3.064-8.156,3.064-12.969
		c0-4.813-1.022-9.121-3.064-12.927c-2.044-3.805-4.897-6.771-8.562-8.898c-3.666-2.126-7.821-3.19-12.466-3.19h-10.829v50.114
		H272.48z"/>
	<path fill="#1E1A1D" d="M326.623,90.903c-3.525-1.986-6.268-4.743-8.227-8.269c-1.959-3.525-2.938-7.526-2.938-12.004
		c0-4.533,0.979-8.562,2.938-12.088c1.958-3.526,4.701-6.282,8.227-8.269c3.526-1.985,7.526-2.98,12.004-2.98
		c4.42,0,8.38,0.995,11.878,2.98c3.497,1.987,6.24,4.743,8.227,8.269c1.986,3.526,2.98,7.555,2.98,12.088
		c0,4.478-0.98,8.479-2.938,12.004c-1.959,3.525-4.688,6.282-8.185,8.269c-3.498,1.987-7.485,2.979-11.962,2.979
		C334.149,93.882,330.148,92.89,326.623,90.903z M346.307,84.313c2.267-1.343,4.03-3.204,5.289-5.583
		c1.259-2.377,1.889-5.079,1.889-8.1c0-3.022-0.629-5.736-1.889-8.143c-1.259-2.405-3.022-4.28-5.289-5.624
		c-2.266-1.343-4.827-2.015-7.681-2.015s-5.415,0.671-7.681,2.015c-2.267,1.343-4.044,3.219-5.331,5.624
		c-1.288,2.407-1.931,5.121-1.931,8.143c0,3.021,0.643,5.723,1.931,8.1c1.287,2.379,3.064,4.24,5.331,5.583
		c2.266,1.342,4.827,2.014,7.681,2.014S344.041,85.656,346.307,84.313z"/>
	<path fill="#1E1A1D" d="M407.711,49.729c3.078,1.678,5.484,4.127,7.221,7.345c1.732,3.218,2.602,7.093,2.602,11.625v20.65
		c0,1.231-0.406,2.253-1.217,3.064c-0.813,0.812-1.834,1.217-3.064,1.217c-1.232,0-2.254-0.405-3.064-1.217
		c-0.813-0.811-1.217-1.833-1.217-3.064v-20.65c0-4.533-1.217-7.96-3.652-10.283c-2.434-2.321-5.667-3.483-9.696-3.483
		c-2.35,0-4.49,0.476-6.422,1.427c-1.93,0.952-3.441,2.239-4.531,3.861c-1.092,1.624-1.637,3.442-1.637,5.457V89.35
		c0,1.231-0.393,2.253-1.176,3.064c-0.785,0.812-1.82,1.217-3.106,1.217c-1.232,0-2.254-0.405-3.064-1.217
		c-0.812-0.811-1.217-1.833-1.217-3.064V51.911c0-1.287,0.405-2.322,1.217-3.106c0.811-0.783,1.832-1.175,3.064-1.175
		c1.286,0,2.321,0.392,3.106,1.175c0.783,0.785,1.176,1.82,1.176,3.106v0.923c1.789-1.791,3.916-3.176,6.379-4.156
		c2.461-0.979,5.092-1.469,7.891-1.469C401.164,47.21,404.633,48.05,407.711,49.729z"/>
	<path fill="#1E1A1D" d="M453.838,86.328c0.699,0.784,1.049,1.792,1.049,3.022c0,1.231-0.461,2.239-1.385,3.022
		c-0.924,0.785-2.113,1.175-3.568,1.175h-1.51c-2.744,0-5.248-0.713-7.514-2.141c-2.266-1.426-4.043-3.371-5.33-5.833
		c-1.289-2.462-1.932-5.232-1.932-8.311V56.528h-3.861c-1.176,0-2.127-0.336-2.854-1.007c-0.729-0.671-1.092-1.511-1.092-2.518
		c0-1.119,0.363-2.015,1.092-2.687c0.727-0.671,1.678-1.007,2.854-1.007h3.861V37.221c0-1.23,0.393-2.237,1.176-3.022
		c0.783-0.783,1.791-1.175,3.021-1.175s2.238,0.392,3.023,1.175c0.781,0.785,1.174,1.792,1.174,3.022v12.088h7.135
		c1.176,0,2.127,0.336,2.855,1.007c0.727,0.672,1.09,1.567,1.09,2.687c0,1.007-0.363,1.847-1.09,2.518
		c-0.729,0.671-1.68,1.007-2.855,1.007h-7.135v20.734c0,2.239,0.615,4.114,1.848,5.625c1.23,1.511,2.74,2.266,4.533,2.266h2.854
		C452.285,85.152,453.137,85.545,453.838,86.328z"/>
	<path fill="#00C4A7" d="M530.604,29.246c0.838,0.839,1.258,1.876,1.258,3.106v56.83c0,1.231-0.434,2.266-1.301,3.105
		c-0.869,0.84-1.889,1.259-3.064,1.259c-1.23,0-2.266-0.419-3.105-1.259c-0.84-0.839-1.26-1.874-1.26-3.105v-41.72l-20.314,41.384
		c-0.951,1.456-2.211,2.182-3.775,2.182c-1.848,0-3.191-0.867-4.031-2.602l-20.063-40.209v40.965c0,1.231-0.418,2.266-1.258,3.105
		c-0.84,0.84-1.877,1.259-3.105,1.259c-1.232,0-2.268-0.419-3.107-1.259c-0.838-0.839-1.258-1.874-1.258-3.105v-56.83
		c0-1.23,0.42-2.267,1.258-3.106c0.84-0.839,1.875-1.259,3.107-1.259c1.678,0,2.965,0.785,3.861,2.351l24.93,49.946l24.26-49.946
		c0.895-1.566,2.184-2.351,3.861-2.351C528.727,27.987,529.764,28.407,530.604,29.246z"/>
	<path fill="#00C4A7" d="M549.027,38.521c-1.092-1.091-1.637-2.392-1.637-3.903s0.545-2.813,1.637-3.904
		c1.092-1.091,2.393-1.636,3.902-1.636c1.512,0,2.813,0.545,3.904,1.636c1.092,1.091,1.637,2.393,1.637,3.904
		s-0.545,2.812-1.637,3.903c-1.092,1.092-2.393,1.637-3.904,1.637C551.42,40.159,550.119,39.613,549.027,38.521z M549.867,92.329
		c-0.813-0.81-1.219-1.832-1.219-3.063V51.911c0-1.287,0.406-2.322,1.219-3.106c0.811-0.783,1.832-1.175,3.063-1.175
		c1.287,0,2.322,0.392,3.107,1.175c0.783,0.785,1.174,1.82,1.174,3.106v37.354c0,1.232-0.391,2.253-1.174,3.063
		c-0.785,0.813-1.82,1.217-3.107,1.217C551.699,93.546,550.678,93.142,549.867,92.329z"/>
	<path fill="#00C4A7" d="M606.402,49.729c3.076,1.678,5.482,4.127,7.219,7.345c1.734,3.218,2.602,7.093,2.602,11.625v20.65
		c0,1.231-0.406,2.253-1.217,3.064c-0.813,0.812-1.834,1.217-3.064,1.217s-2.252-0.405-3.063-1.217
		c-0.813-0.811-1.219-1.833-1.219-3.064v-20.65c0-4.533-1.217-7.96-3.65-10.283c-2.436-2.321-5.666-3.483-9.695-3.483
		c-2.352,0-4.492,0.476-6.422,1.427c-1.932,0.952-3.441,2.239-4.533,3.861c-1.092,1.624-1.637,3.442-1.637,5.457V89.35
		c0,1.231-0.393,2.253-1.176,3.064c-0.785,0.812-1.818,1.217-3.105,1.217c-1.232,0-2.254-0.405-3.064-1.217
		c-0.811-0.811-1.217-1.833-1.217-3.064V51.911c0-1.287,0.406-2.322,1.217-3.106c0.811-0.783,1.832-1.175,3.064-1.175
		c1.287,0,2.32,0.392,3.105,1.175c0.783,0.785,1.176,1.82,1.176,3.106v0.923c1.791-1.791,3.916-3.176,6.379-4.156
		c2.463-0.979,5.092-1.469,7.891-1.469C599.854,47.21,603.322,48.05,606.402,49.729z"/>
	<path fill="#00C4A7" d="M673.137,29.163c0.781,0.784,1.174,1.819,1.174,3.105v38.278c0,4.365-1.021,8.325-3.064,11.878
		c-2.043,3.554-4.813,6.352-8.309,8.394c-3.5,2.044-7.402,3.064-11.711,3.064c-4.311,0-8.24-1.02-11.793-3.064
		c-3.557-2.042-6.338-4.84-8.354-8.394c-2.014-3.553-3.021-7.513-3.021-11.878c0-4.365,0.936-8.324,2.813-11.878
		c1.873-3.553,4.447-6.338,7.723-8.353c3.273-2.015,6.926-3.022,10.953-3.022c3.246,0,6.268,0.671,9.066,2.015
		s5.176,3.219,7.135,5.625V32.268c0-1.287,0.406-2.322,1.217-3.105c0.813-0.783,1.834-1.176,3.064-1.176
		C671.316,27.987,672.352,28.379,673.137,29.163z M658.824,84.271c2.266-1.371,4.041-3.259,5.33-5.666
		c1.285-2.405,1.93-5.092,1.93-8.059c0-2.966-0.645-5.637-1.93-8.017c-1.289-2.378-3.064-4.252-5.33-5.625
		c-2.268-1.371-4.801-2.056-7.598-2.056c-2.799,0-5.33,0.686-7.598,2.056c-2.266,1.372-4.057,3.247-5.371,5.625
		c-1.316,2.379-1.973,5.051-1.973,8.017c0,2.967,0.656,5.653,1.973,8.059c1.314,2.407,3.105,4.295,5.371,5.666
		c2.268,1.372,4.799,2.057,7.598,2.057C654.023,86.328,656.557,85.643,658.824,84.271z"/>
	<path fill="#1E1A1D" d="M691.518,92.288c-0.84-0.839-1.26-1.874-1.26-3.105v-56.83c0-1.287,0.42-2.336,1.26-3.148
		c0.84-0.81,1.875-1.217,3.107-1.217c1.285,0,2.334,0.407,3.146,1.217c0.811,0.812,1.217,1.861,1.217,3.148v56.83
		c0,1.231-0.406,2.266-1.217,3.105c-0.813,0.84-1.861,1.259-3.146,1.259C693.393,93.546,692.357,93.127,691.518,92.288z"/>
	<path fill="#1E1A1D" d="M760.477,29.12c0.756,0.756,1.133,1.721,1.133,2.896c0,1.175-0.377,2.141-1.133,2.896
		c-0.756,0.755-1.721,1.133-2.896,1.133h-18.047v53.136c0,1.231-0.42,2.266-1.26,3.105c-0.84,0.84-1.875,1.259-3.105,1.259
		c-1.232,0-2.268-0.419-3.107-1.259c-0.838-0.839-1.258-1.874-1.258-3.105V36.046H712.67c-1.174,0-2.141-0.378-2.895-1.133
		c-0.756-0.756-1.135-1.721-1.135-2.896c0-1.175,0.379-2.14,1.135-2.896c0.754-0.755,1.721-1.133,2.895-1.133h44.91
		C758.756,27.987,759.721,28.365,760.477,29.12z"/>
</g>
<g>
	<path fill="#00C4A7" d="M275.68,123.875c0.236,0.261,0.354,0.579,0.354,0.952c0,0.349-0.087,0.659-0.261,0.933l-10.186,16.08v9.328
		c0,0.397-0.137,0.74-0.41,1.025c-0.274,0.286-0.623,0.429-1.045,0.429c-0.398,0-0.74-0.143-1.025-0.429
		c-0.287-0.285-0.429-0.628-0.429-1.025v-9.328l-10.148-16.08c-0.2-0.323-0.298-0.634-0.298-0.933c0-0.373,0.136-0.69,0.41-0.952
		c0.274-0.261,0.61-0.392,1.008-0.392c0.273,0,0.504,0.056,0.69,0.168s0.366,0.293,0.541,0.541l9.29,14.96l9.252-14.886
		c0.199-0.273,0.397-0.472,0.597-0.597c0.199-0.124,0.447-0.187,0.747-0.187C275.139,123.483,275.443,123.614,275.68,123.875z"/>
	<path fill="#00C4A7" d="M289.205,133.313c1.417,0.858,2.518,2.046,3.301,3.563c0.783,1.518,1.176,3.246,1.176,5.186
		c0,0.398-0.125,0.715-0.374,0.951c-0.249,0.237-0.573,0.354-0.97,0.354h-15.073c0.199,2.04,0.995,3.694,2.388,4.962
		c1.393,1.269,3.134,1.903,5.223,1.903c0.895,0,1.796-0.155,2.705-0.466c0.908-0.311,1.636-0.703,2.183-1.175
		c0.323-0.248,0.659-0.373,1.007-0.373c0.274,0,0.547,0.099,0.821,0.298c0.323,0.298,0.485,0.634,0.485,1.007
		c0,0.323-0.137,0.609-0.41,0.858c-0.821,0.696-1.865,1.274-3.134,1.735s-2.487,0.69-3.656,0.69c-1.99,0-3.768-0.441-5.335-1.325
		c-1.567-0.882-2.792-2.113-3.675-3.693c-0.883-1.58-1.325-3.364-1.325-5.354c0-2.015,0.416-3.811,1.25-5.391
		c0.833-1.579,1.989-2.811,3.469-3.693c1.479-0.882,3.166-1.324,5.056-1.324C286.157,132.027,287.786,132.456,289.205,133.313z
		 M279.616,136.354c-1.244,1.169-2.002,2.711-2.276,4.626h13.655c-0.2-1.915-0.896-3.457-2.09-4.626
		c-1.193-1.169-2.723-1.753-4.588-1.753C282.427,134.601,280.859,135.186,279.616,136.354z"/>
	<path fill="#00C4A7" d="M308.493,150.158c0.249,0.274,0.373,0.622,0.373,1.045c0,0.398-0.149,0.734-0.448,1.007
		c-0.298,0.274-0.671,0.411-1.119,0.411h-0.784c-1.319,0-2.499-0.317-3.544-0.951c-1.045-0.634-1.859-1.493-2.444-2.574
		c-0.584-1.082-0.876-2.307-0.876-3.675v-9.961h-2.425c-0.398,0-0.716-0.118-0.952-0.354c-0.237-0.236-0.355-0.528-0.355-0.877
		c0-0.373,0.118-0.677,0.355-0.914c0.236-0.236,0.553-0.354,0.952-0.354h2.425v-5.783c0-0.423,0.131-0.771,0.392-1.045
		c0.261-0.273,0.603-0.41,1.026-0.41s0.771,0.137,1.045,0.41c0.273,0.274,0.411,0.622,0.411,1.045v5.783h4.215
		c0.398,0,0.714,0.118,0.952,0.354c0.235,0.237,0.354,0.542,0.354,0.914c0,0.349-0.119,0.641-0.354,0.877
		c-0.237,0.237-0.554,0.354-0.952,0.354h-4.215v9.961c0,1.269,0.373,2.307,1.119,3.115c0.746,0.809,1.704,1.212,2.873,1.212h1.007
		C307.92,149.748,308.244,149.885,308.493,150.158z"/>
	<path fill="#00C4A7" d="M339.029,133.388c1.579,0.908,2.822,2.158,3.731,3.75c0.907,1.592,1.361,3.358,1.361,5.298v8.768
		c0,0.398-0.137,0.734-0.411,1.007c-0.273,0.274-0.622,0.411-1.044,0.411c-0.424,0-0.772-0.131-1.045-0.392
		c-0.274-0.262-0.411-0.603-0.411-1.026v-2.239c-0.871,1.194-1.978,2.133-3.32,2.817c-1.343,0.684-2.823,1.025-4.44,1.025
		c-1.89,0-3.6-0.454-5.129-1.361c-1.53-0.908-2.737-2.151-3.619-3.731c-0.883-1.579-1.325-3.339-1.325-5.279
		s0.454-3.706,1.362-5.298c0.908-1.591,2.151-2.841,3.731-3.75c1.579-0.908,3.339-1.361,5.279-1.361
		C335.689,132.027,337.449,132.48,339.029,133.388z M337.592,149.188c1.144-0.671,2.045-1.598,2.705-2.78
		c0.659-1.181,0.989-2.505,0.989-3.973c0-1.467-0.33-2.792-0.989-3.973c-0.659-1.181-1.561-2.114-2.705-2.798
		c-1.145-0.684-2.425-1.026-3.842-1.026c-1.418,0-2.706,0.342-3.862,1.026c-1.156,0.685-2.064,1.617-2.723,2.798
		c-0.66,1.182-0.989,2.506-0.989,3.973c0,1.468,0.33,2.792,0.989,3.973c0.658,1.182,1.566,2.108,2.723,2.78
		c1.157,0.671,2.444,1.007,3.862,1.007C335.167,150.196,336.448,149.86,337.592,149.188z"/>
	<path fill="#00C4A7" d="M364.137,133.108c1.405,0.747,2.505,1.835,3.302,3.265c0.795,1.431,1.193,3.14,1.193,5.13v9.7
		c0,0.398-0.137,0.734-0.41,1.007c-0.274,0.274-0.609,0.411-1.007,0.411c-0.423,0-0.771-0.136-1.045-0.411
		c-0.274-0.273-0.41-0.609-0.41-1.007v-9.7c0-2.213-0.616-3.898-1.847-5.055c-1.23-1.157-2.841-1.735-4.831-1.735
		c-1.219,0-2.319,0.237-3.301,0.709c-0.983,0.473-1.76,1.125-2.333,1.958c-0.572,0.833-0.858,1.76-0.858,2.779v11.043
		c0,0.423-0.13,0.764-0.392,1.026c-0.261,0.261-0.604,0.392-1.026,0.392c-0.424,0-0.771-0.131-1.045-0.392
		c-0.274-0.262-0.41-0.603-0.41-1.026v-17.535c0-0.422,0.136-0.771,0.41-1.044c0.274-0.273,0.621-0.41,1.045-0.41
		c0.422,0,0.765,0.137,1.026,0.41c0.261,0.274,0.392,0.622,0.392,1.044v1.269c0.821-0.92,1.815-1.641,2.984-2.164
		c1.169-0.522,2.438-0.784,3.806-0.784C361.146,131.989,362.731,132.362,364.137,133.108z"/>
	<path fill="#00C4A7" d="M378.947,151.464c-1.579-0.896-2.816-2.133-3.712-3.712s-1.344-3.352-1.344-5.316
		c0-1.964,0.448-3.743,1.344-5.335c0.896-1.591,2.133-2.835,3.712-3.731c1.58-0.895,3.351-1.343,5.316-1.343s3.73,0.448,5.299,1.343
		c1.566,0.896,2.803,2.14,3.711,3.731c0.908,1.592,1.363,3.371,1.363,5.335c0,1.965-0.449,3.737-1.344,5.316
		c-0.896,1.58-2.133,2.816-3.713,3.712c-1.578,0.896-3.352,1.343-5.316,1.343S380.527,152.36,378.947,151.464z M388.144,149.188
		c1.143-0.671,2.039-1.598,2.686-2.78c0.646-1.181,0.971-2.505,0.971-3.973c0-1.492-0.324-2.829-0.971-4.01s-1.543-2.108-2.686-2.78
		c-1.145-0.672-2.438-1.007-3.881-1.007c-1.418,0-2.705,0.335-3.861,1.007c-1.157,0.671-2.064,1.599-2.723,2.78
		s-0.988,2.518-0.988,4.01c0,1.468,0.329,2.792,0.988,3.973c0.659,1.182,1.566,2.108,2.723,2.78
		c1.156,0.671,2.443,1.007,3.861,1.007C385.707,150.196,387,149.86,388.144,149.188z"/>
	<path fill="#00C4A7" d="M410.193,150.158c0.248,0.274,0.373,0.622,0.373,1.045c0,0.398-0.15,0.734-0.447,1.007
		c-0.299,0.274-0.672,0.411-1.119,0.411h-0.785c-1.318,0-2.498-0.317-3.543-0.951c-1.045-0.634-1.859-1.493-2.443-2.574
		c-0.586-1.082-0.877-2.307-0.877-3.675v-9.961h-2.426c-0.398,0-0.715-0.118-0.951-0.354c-0.236-0.236-0.355-0.528-0.355-0.877
		c0-0.373,0.119-0.677,0.355-0.914c0.236-0.236,0.553-0.354,0.951-0.354h2.426v-5.783c0-0.423,0.131-0.771,0.391-1.045
		c0.262-0.273,0.604-0.41,1.027-0.41c0.422,0,0.77,0.137,1.043,0.41c0.273,0.274,0.412,0.622,0.412,1.045v5.783h4.215
		c0.398,0,0.715,0.118,0.951,0.354c0.236,0.237,0.355,0.542,0.355,0.914c0,0.349-0.119,0.641-0.355,0.877
		c-0.236,0.237-0.553,0.354-0.951,0.354h-4.215v9.961c0,1.269,0.373,2.307,1.119,3.115c0.746,0.809,1.703,1.212,2.871,1.212h1.008
		C409.621,149.748,409.943,149.885,410.193,150.158z"/>
	<path fill="#00C4A7" d="M429.648,133.108c1.406,0.747,2.506,1.835,3.303,3.265c0.795,1.431,1.193,3.14,1.193,5.13v9.7
		c0,0.398-0.137,0.734-0.41,1.007c-0.273,0.274-0.609,0.411-1.008,0.411c-0.422,0-0.77-0.136-1.045-0.411
		c-0.273-0.273-0.41-0.609-0.41-1.007v-9.7c0-2.213-0.615-3.898-1.846-5.055c-1.232-1.157-2.842-1.735-4.832-1.735
		c-1.219,0-2.318,0.237-3.301,0.709c-0.982,0.473-1.76,1.125-2.332,1.958c-0.572,0.833-0.859,1.76-0.859,2.779v11.043
		c0,0.423-0.129,0.764-0.391,1.026c-0.262,0.261-0.604,0.392-1.025,0.392c-0.424,0-0.771-0.131-1.045-0.392
		c-0.275-0.262-0.41-0.603-0.41-1.026v-26.265c0-0.422,0.135-0.771,0.41-1.044c0.273-0.273,0.621-0.411,1.045-0.411
		c0.422,0,0.764,0.137,1.025,0.411c0.262,0.274,0.391,0.622,0.391,1.044v9.999c0.82-0.92,1.816-1.641,2.984-2.164
		c1.17-0.522,2.439-0.784,3.807-0.784C426.658,131.989,428.244,132.362,429.648,133.108z"/>
	<path fill="#00C4A7" d="M454.066,133.313c1.418,0.858,2.518,2.046,3.303,3.563c0.783,1.518,1.174,3.246,1.174,5.186
		c0,0.398-0.125,0.715-0.373,0.951c-0.248,0.237-0.572,0.354-0.969,0.354h-15.072c0.197,2.04,0.994,3.694,2.387,4.962
		c1.393,1.269,3.133,1.903,5.223,1.903c0.896,0,1.797-0.155,2.705-0.466c0.908-0.311,1.635-0.703,2.184-1.175
		c0.322-0.248,0.658-0.373,1.006-0.373c0.273,0,0.547,0.099,0.822,0.298c0.322,0.298,0.484,0.634,0.484,1.007
		c0,0.323-0.137,0.609-0.41,0.858c-0.82,0.696-1.865,1.274-3.135,1.735c-1.268,0.46-2.486,0.69-3.656,0.69
		c-1.99,0-3.768-0.441-5.334-1.325c-1.568-0.882-2.793-2.113-3.676-3.693s-1.324-3.364-1.324-5.354c0-2.015,0.416-3.811,1.25-5.391
		c0.832-1.579,1.99-2.811,3.469-3.693c1.48-0.882,3.166-1.324,5.057-1.324C451.02,132.027,452.648,132.456,454.066,133.313z
		 M444.479,136.354c-1.244,1.169-2.002,2.711-2.275,4.626h13.654c-0.199-1.915-0.896-3.457-2.09-4.626s-2.723-1.753-4.588-1.753
		C447.289,134.601,445.723,135.186,444.479,136.354z"/>
	<path fill="#00C4A7" d="M475.09,132.399c0.609,0.274,0.914,0.66,0.914,1.157c0,0.149-0.012,0.261-0.037,0.336
		c-0.1,0.349-0.256,0.584-0.467,0.709s-0.504,0.187-0.877,0.187c-0.223,0-0.609-0.024-1.156-0.075
		c-0.199-0.024-0.498-0.037-0.895-0.037c-1.865,0-3.391,0.498-4.57,1.493c-1.182,0.995-1.771,2.289-1.771,3.88v11.155
		c0,0.448-0.127,0.796-0.375,1.044c-0.248,0.249-0.596,0.373-1.045,0.373c-0.447,0-0.795-0.124-1.043-0.373
		c-0.25-0.248-0.373-0.597-0.373-1.044v-17.572c0-0.448,0.123-0.796,0.373-1.044c0.248-0.249,0.596-0.373,1.043-0.373
		c0.449,0,0.797,0.125,1.045,0.373s0.375,0.597,0.375,1.044v1.642c0.721-1.045,1.641-1.853,2.76-2.425
		c1.119-0.572,2.326-0.858,3.619-0.858C473.654,131.989,474.48,132.126,475.09,132.399z"/>
	<path fill="#00C4A7" d="M501.373,150.158c0.248,0.274,0.373,0.622,0.373,1.045c0,0.398-0.148,0.734-0.447,1.007
		c-0.299,0.274-0.672,0.411-1.119,0.411h-0.785c-1.318,0-2.498-0.317-3.543-0.951c-1.045-0.634-1.859-1.493-2.443-2.574
		c-0.584-1.082-0.877-2.307-0.877-3.675v-9.961h-2.426c-0.398,0-0.715-0.118-0.951-0.354c-0.236-0.236-0.354-0.528-0.354-0.877
		c0-0.373,0.117-0.677,0.354-0.914c0.236-0.236,0.553-0.354,0.951-0.354h2.426v-5.783c0-0.423,0.131-0.771,0.391-1.045
		c0.262-0.273,0.604-0.41,1.027-0.41c0.422,0,0.77,0.137,1.045,0.41c0.271,0.274,0.41,0.622,0.41,1.045v5.783h4.215
		c0.398,0,0.715,0.118,0.951,0.354c0.236,0.237,0.355,0.542,0.355,0.914c0,0.349-0.119,0.641-0.355,0.877
		c-0.236,0.237-0.553,0.354-0.951,0.354h-4.215v9.961c0,1.269,0.373,2.307,1.119,3.115c0.746,0.809,1.703,1.212,2.871,1.212h1.008
		C500.801,149.748,501.125,149.885,501.373,150.158z"/>
	<path fill="#00C4A7" d="M510.383,151.464c-1.58-0.896-2.816-2.133-3.713-3.712c-0.895-1.58-1.342-3.352-1.342-5.316
		c0-1.964,0.447-3.743,1.342-5.335c0.896-1.591,2.133-2.835,3.713-3.731c1.58-0.895,3.352-1.343,5.316-1.343s3.73,0.448,5.299,1.343
		c1.566,0.896,2.803,2.14,3.711,3.731c0.908,1.592,1.361,3.371,1.361,5.335c0,1.965-0.447,3.737-1.342,5.316
		c-0.896,1.58-2.135,2.816-3.713,3.712c-1.58,0.896-3.352,1.343-5.316,1.343S511.963,152.36,510.383,151.464z M519.58,149.188
		c1.143-0.671,2.039-1.598,2.686-2.78c0.646-1.181,0.971-2.505,0.971-3.973c0-1.492-0.324-2.829-0.971-4.01s-1.543-2.108-2.686-2.78
		c-1.145-0.672-2.439-1.007-3.881-1.007c-1.418,0-2.705,0.335-3.861,1.007c-1.156,0.671-2.064,1.599-2.723,2.78
		c-0.66,1.181-0.99,2.518-0.99,4.01c0,1.468,0.33,2.792,0.99,3.973c0.658,1.182,1.566,2.108,2.723,2.78s2.443,1.007,3.861,1.007
		C517.141,150.196,518.436,149.86,519.58,149.188z"/>
	<path fill="#00C4A7" d="M551.328,133.631v8.768c0,1.94-0.455,3.706-1.361,5.298c-0.91,1.592-2.152,2.841-3.732,3.75
		c-1.578,0.908-3.338,1.361-5.277,1.361c-1.941,0-3.701-0.454-5.279-1.361c-1.58-0.908-2.824-2.158-3.73-3.75
		c-0.91-1.592-1.363-3.358-1.363-5.298c0-1.94,0.441-3.7,1.324-5.279c0.883-1.579,2.09-2.823,3.619-3.731
		c1.529-0.908,3.24-1.361,5.131-1.361c1.615,0,3.096,0.342,4.439,1.026c1.342,0.684,2.449,1.623,3.32,2.816v-10.931
		c0-0.422,0.137-0.771,0.41-1.044c0.273-0.273,0.621-0.411,1.045-0.411c0.422,0,0.766,0.137,1.025,0.411
		c0.262,0.274,0.393,0.622,0.393,1.044v8.357C551.314,133.37,551.328,133.481,551.328,133.631z M544.799,149.169
		c1.143-0.684,2.045-1.616,2.705-2.798c0.658-1.181,0.988-2.505,0.988-3.973c0-0.423-0.014-0.733-0.037-0.933
		c-0.025-0.05-0.037-0.112-0.037-0.187c-0.25-1.939-1.064-3.531-2.443-4.775c-1.381-1.243-3.055-1.865-5.018-1.865
		c-1.418,0-2.707,0.335-3.863,1.007c-1.156,0.671-2.064,1.599-2.723,2.78c-0.66,1.181-0.988,2.506-0.988,3.973
		c0,1.468,0.328,2.792,0.988,3.973c0.658,1.182,1.566,2.114,2.723,2.798c1.156,0.685,2.445,1.026,3.863,1.026
		C542.373,150.196,543.654,149.854,544.799,149.169z"/>
	<path fill="#00C4A7" d="M562.016,151.464c-1.58-0.896-2.816-2.133-3.711-3.712c-0.896-1.58-1.344-3.352-1.344-5.316
		c0-1.964,0.447-3.743,1.344-5.335c0.895-1.591,2.131-2.835,3.711-3.731c1.58-0.895,3.352-1.343,5.316-1.343s3.73,0.448,5.299,1.343
		c1.566,0.896,2.803,2.14,3.711,3.731c0.908,1.592,1.363,3.371,1.363,5.335c0,1.965-0.449,3.737-1.344,5.316
		c-0.896,1.58-2.133,2.816-3.713,3.712c-1.578,0.896-3.352,1.343-5.316,1.343S563.596,152.36,562.016,151.464z M571.213,149.188
		c1.143-0.671,2.039-1.598,2.686-2.78c0.646-1.181,0.971-2.505,0.971-3.973c0-1.492-0.324-2.829-0.971-4.01s-1.543-2.108-2.686-2.78
		c-1.145-0.672-2.438-1.007-3.881-1.007c-1.418,0-2.705,0.335-3.861,1.007c-1.156,0.671-2.064,1.599-2.723,2.78
		c-0.66,1.181-0.99,2.518-0.99,4.01c0,1.468,0.33,2.792,0.99,3.973c0.658,1.182,1.566,2.108,2.723,2.78s2.443,1.007,3.861,1.007
		C568.775,150.196,570.068,149.86,571.213,149.188z"/>
	<path fill="#00C4A7" d="M608.801,133.388c1.578,0.908,2.822,2.158,3.73,3.75c0.908,1.592,1.361,3.358,1.361,5.298v8.768
		c0,0.398-0.137,0.734-0.41,1.007c-0.273,0.274-0.621,0.411-1.045,0.411s-0.771-0.131-1.045-0.392
		c-0.273-0.262-0.41-0.603-0.41-1.026v-2.239c-0.871,1.194-1.977,2.133-3.32,2.817c-1.342,0.684-2.822,1.025-4.439,1.025
		c-1.891,0-3.6-0.454-5.129-1.361c-1.531-0.908-2.738-2.151-3.619-3.731c-0.885-1.579-1.326-3.339-1.326-5.279
		s0.455-3.706,1.363-5.298c0.906-1.591,2.15-2.841,3.73-3.75c1.578-0.908,3.338-1.361,5.279-1.361
		C605.461,132.027,607.221,132.48,608.801,133.388z M607.363,149.188c1.145-0.671,2.047-1.598,2.705-2.78
		c0.66-1.181,0.988-2.505,0.988-3.973c0-1.467-0.328-2.792-0.988-3.973c-0.658-1.181-1.561-2.114-2.705-2.798
		c-1.145-0.684-2.424-1.026-3.842-1.026s-2.705,0.342-3.861,1.026c-1.156,0.685-2.064,1.617-2.725,2.798
		c-0.658,1.182-0.988,2.506-0.988,3.973c0,1.468,0.33,2.792,0.988,3.973c0.66,1.182,1.568,2.108,2.725,2.78s2.443,1.007,3.861,1.007
		S606.219,149.86,607.363,149.188z"/>
	<path fill="#00C4A7" d="M635.139,133.388c1.58,0.908,2.822,2.158,3.73,3.75c0.908,1.592,1.361,3.358,1.361,5.298
		s-0.441,3.7-1.322,5.279c-0.885,1.581-2.09,2.823-3.619,3.731c-1.531,0.908-3.24,1.361-5.131,1.361
		c-1.617,0-3.096-0.342-4.439-1.025c-1.344-0.684-2.449-1.624-3.32-2.817v10.932c0,0.422-0.137,0.77-0.41,1.044
		c-0.275,0.273-0.623,0.41-1.045,0.41c-0.424,0-0.766-0.137-1.025-0.41c-0.262-0.274-0.393-0.623-0.393-1.044v-8.357
		c-0.025-0.075-0.037-0.187-0.037-0.336v-8.768c0-1.94,0.453-3.706,1.361-5.298c0.908-1.591,2.152-2.841,3.73-3.75
		c1.58-0.908,3.34-1.361,5.279-1.361S633.559,132.48,635.139,133.388z M633.721,149.188c1.156-0.671,2.064-1.598,2.725-2.78
		c0.658-1.181,0.988-2.505,0.988-3.973c0-1.467-0.33-2.792-0.988-3.973c-0.66-1.181-1.568-2.114-2.725-2.798
		c-1.156-0.684-2.443-1.026-3.861-1.026c-1.416,0-2.699,0.342-3.842,1.026c-1.145,0.685-2.047,1.617-2.705,2.798
		c-0.66,1.182-0.988,2.506-0.988,3.973c0,0.423,0.012,0.734,0.037,0.933c0.023,0.05,0.037,0.112,0.037,0.187
		c0.248,1.939,1.063,3.531,2.443,4.775c1.381,1.244,3.053,1.866,5.018,1.866C631.277,150.196,632.564,149.86,633.721,149.188z"/>
	<path fill="#00C4A7" d="M661.516,133.388c1.578,0.908,2.822,2.158,3.73,3.75c0.908,1.592,1.361,3.358,1.361,5.298
		s-0.441,3.7-1.324,5.279c-0.883,1.581-2.09,2.823-3.619,3.731c-1.529,0.908-3.238,1.361-5.129,1.361
		c-1.617,0-3.098-0.342-4.439-1.025c-1.344-0.684-2.451-1.624-3.32-2.817v10.932c0,0.422-0.137,0.77-0.41,1.044
		c-0.275,0.273-0.623,0.41-1.045,0.41c-0.424,0-0.766-0.137-1.025-0.41c-0.262-0.274-0.393-0.623-0.393-1.044v-8.357
		c-0.025-0.075-0.037-0.187-0.037-0.336v-8.768c0-1.94,0.453-3.706,1.361-5.298c0.908-1.591,2.15-2.841,3.73-3.75
		c1.58-0.908,3.34-1.361,5.279-1.361S659.936,132.48,661.516,133.388z M660.098,149.188c1.156-0.671,2.064-1.598,2.725-2.78
		c0.658-1.181,0.988-2.505,0.988-3.973c0-1.467-0.33-2.792-0.988-3.973c-0.66-1.181-1.568-2.114-2.725-2.798
		c-1.156-0.684-2.443-1.026-3.861-1.026s-2.699,0.342-3.844,1.026c-1.143,0.685-2.045,1.617-2.703,2.798
		c-0.66,1.182-0.988,2.506-0.988,3.973c0,0.423,0.012,0.734,0.035,0.933c0.025,0.05,0.039,0.112,0.039,0.187
		c0.248,1.939,1.063,3.531,2.443,4.775c1.381,1.244,3.053,1.866,5.018,1.866C657.654,150.196,658.941,149.86,660.098,149.188z"/>
</g>
<g>
	<path fill="#00C4A7" d="M203.725,99.317c-6.441,1.695-13.793,4.939-18.571,9.836c-1.75-1.413-2.733-3.683-1.872-6.526
		c3.238-10.688,14.312-14.027,24.344-14.809c3.551-0.277,7.12-0.002,10.497,0.848c-0.343-1.389-0.761-2.758-1.279-4.093
		c-0.114-0.294-0.176-0.461-0.208-0.557c-0.03-0.063-0.057-0.123-0.094-0.203c-0.267-0.584-0.535-1.168-0.827-1.741
		c-0.491-0.961-0.997-1.917-1.555-2.841c-1.41-2.333-2.15-3.419-3.465-4.887c-0.815-0.909-1.654-1.804-2.568-2.615
		c-0.311-0.275-0.626-0.549-0.946-0.814c-0.046-0.028-0.189-0.129-0.441-0.313c-0.757-0.502-1.536-0.982-2.354-1.381
		c0.121,0.1-1.469-0.464-1.805-0.528c-0.008-0.001-0.012-0.002-0.02-0.003c-0.054,0-0.104,0-0.175,0
		c-0.161-0.002-0.323,0.001-0.485,0.002c4.747-12.079,1.663-27.51-9.745-35.832c-12.302-8.974-30.284-7.796-40.915,2.08
		c0.198-3.095,1.099-5.589,2.524-7.569c-0.079-0.341-0.169-0.68-0.288-1.01c-0.018-0.032-0.032-0.056-0.053-0.093
		c-0.18-0.325-0.372-0.644-0.574-0.955c-0.154-0.173-0.394-0.45-0.504-0.558c-0.225-0.219-1.202-0.977-0.979-0.847
		c-0.195-0.132-0.389-0.264-0.592-0.384c-0.556-0.328-1.119-0.647-1.706-0.919c-0.064-0.029-0.11-0.051-0.16-0.075
		c-0.039-0.014-0.068-0.024-0.114-0.041c-1.156-0.417-2.332-0.781-3.533-1.044c-0.715-0.157-1.432-0.307-2.156-0.418
		c-0.073-0.011-0.124-0.019-0.182-0.028c-0.08-0.007-0.178-0.016-0.297-0.027c-1.343-0.126-2.691-0.212-4.041-0.213
		c-1.376-0.001-2.753,0.033-4.125,0.15c-0.602,0.051-1.204,0.11-1.805,0.179c-0.198,0.036-1.013,0.158-1.135,0.181
		c-1.468,0.267-2.928,0.591-4.37,0.984c6.057,6.209,9.803,14.376,9.589,23.456c-0.039,1.645-0.568,2.968-1.389,3.976
		c-0.045-0.607-0.107-1.218-0.195-1.836c-0.685-4.805-2.586-9.413-5.083-13.552c-4.276-7.087-10.895-12.798-18.861-15.18
		c-12.721-3.805-27.88,1.255-33.861,13.082c-0.029,0.001-0.057,0.001-0.086,0.002c-2.749,0.112-5.375,0.611-7.887,1.413
		c-2.642,0.105-5.289,0.594-7.489,1.143c-8.102,2.024-15.223,8.051-15.704,15.795c4.295,1.14,8.317,3.106,11.678,6.163
		c4.896,4.453,7.193,10.221,8.054,16.653c0.101,0.752,0.001,1.478-0.234,2.158c-1.801-2.947-4.1-5.674-6.653-8.008
		c-10.003-9.146-26.292-12.071-36.465-1.457c-5.343,5.575-5.309,13.59-2.887,20.464c2.203,6.254,5.923,10.87,11.258,14.741
		c6.788,4.926,15.968,6.951,23.982,4.822c-1.167,1.835-3.292,2.904-5.659,3.215c-9.531,1.254-19.78-1.751-27.959-7.178
		c-1.745,3.675-2.326,7.615,0.007,10.921c4.736,6.716,14.029,5.577,20.011,1.558c2.991-2.009,7.299-0.589,9.031,2.368
		c1.744,2.978,0.802,6.394-1.658,8.486c-0.071-0.06-0.143-0.119-0.212-0.182c-6.275-5.722-15.638,3.587-9.335,9.334
		c5.835,5.32,13.11,8.511,21.111,7.778c7.378-0.677,14.114-4.258,19.722-8.991c5.402,3.8,11.408,6.783,17.62,9.034
		c8.492,3.077,17.894,4.121,26.297,1.494c2.852,5.916,7.339,10.771,13.757,13.106c8.201,2.983,16.691-0.721,23.592-5.429
		c1.69,1.835,3.655,3.42,5.991,4.621c5.512,2.835,11.804,2.805,17.663,1.134c11.759-3.354,21.78-12.341,30.373-20.651
		c0.049-0.047,0.089-0.097,0.136-0.145c3.091-1.008,5.944-2.724,8.371-5.535c6.327-7.327,9.32-20.216,2.629-28.09
		C221.011,96.59,210.882,97.434,203.725,99.317z"/>
</g>
<g>
	<path fill="#FFFFFF" d="M113.148,103.333c0.628-1.252,1.265-2.504,1.912-3.752c-4.608-4.372-9.379-8.561-14.546-12.291
		c-0.697-0.503-3.228,0.496-3.923,0.681c-0.272,0.074-3.705,1.396-3.738,1.372c8.035,5.8,15.113,12.709,22.109,19.694
		C113.479,106.916,112.513,104.601,113.148,103.333z"/>
	<path fill="#FFFFFF" d="M144.644,62.704c-5.952,5.004-11.751,10.163-16.654,16.226c-5.115,6.327-9.196,13.43-12.93,20.651
		c-0.646,1.249-1.283,2.5-1.912,3.752c-0.636,1.269,0.331,3.583,1.813,5.703c2.207,3.157,5.558,5.881,6.468,4.066
		c4.076-8.12,8.413-16.176,14.087-23.306c4.847-6.091,10.718-11.234,16.654-16.226C154.944,71.239,147.021,60.706,144.644,62.704z"
		/>
</g>
</svg>
